 <svg version="1.0" xmlns="http://www.w3.org/2000/svg" width="700.000000pt" height="700.000000pt" viewBox="0 0 700.000000 700.000000" preserveAspectRatio="xMidYMid meet">
<metadata>
Created by potrace 1.12, written by Peter Selinger 2001-2015
</metadata>
<g transform="translate(0.000000,700.000000) scale(0.100000,-0.100000)" fill="#000000" stroke="none">
<path d="M4594 6703 c-6 -4 -43 -105 -82 -223 -164 -499 -394 -1205 -434
-1327 -23 -73 -46 -133 -51 -133 -5 0 -101 30 -214 66 -200 64 -235 70 -221
32 3 -7 176 -68 384 -136 209 -68 501 -163 649 -212 576 -189 705 -230 720
-230 8 0 15 8 15 19 0 20 -14 26 -285 116 -77 26 -141 48 -143 50 -2 2 425
1354 518 1639 l20 59 -33 31 c-70 65 -360 184 -418 171 -15 -3 -30 -2 -33 3
-4 6 3 8 16 5 13 -3 21 -3 18 0 -3 3 -55 20 -115 37 -111 31 -288 50 -311 33z
m-205 -1815 c122 -40 219 -74 214 -75 -5 -2 -111 30 -234 71 -123 41 -219 75
-214 75 6 1 111 -31 234 -71z m56 12 c13 -6 15 -9 5 -9 -8 0 -22 4 -30 9 -18
12 -2 12 25 0z"></path>
<path d="M3837 3839 c-140 -20 -291 -85 -404 -172 -418 -322 -471 -924 -115
-1309 l54 -58 252 1 c138 1 240 4 226 6 -221 37 -427 210 -506 427 -88 242
-27 514 157 696 111 109 235 170 388 189 146 19 300 -14 427 -90 122 -73 243
-225 284 -356 l17 -57 62 -12 c34 -7 87 -27 118 -43 l56 -31 -6 61 c-10 90
-63 239 -119 330 -187 303 -541 469 -891 418z"></path>
<path d="M3870 3193 c-168 -74 -215 -279 -96 -420 66 -78 205 -107 301 -62 48
23 120 94 135 135 12 30 13 85 3 82 -25 -7 -95 16 -131 42 -57 41 -89 94 -105
170 -12 62 -14 65 -42 67 -17 1 -46 -5 -65 -14z"></path>
<path d="M4631 2949 c-2 -172 -58 -311 -174 -436 -76 -81 -76 -76 -7 -112 43
-23 143 -44 168 -37 26 9 97 106 142 196 47 93 77 191 89 290 10 74 9 76 -17
103 -34 36 -108 75 -160 83 l-40 6 -1 -93z"></path>
<path d="M4245 2360 c-44 -22 -102 -43 -130 -48 -37 -7 10 -10 185 -10 204 -1
229 1 189 12 -46 12 -133 58 -144 76 -8 14 -10 13 -100 -30z"></path>
<path d="M3956 2187 c-13 -83 -78 -197 -155 -269 -115 -109 -238 -154 -396
-146 -64 4 -108 12 -152 30 -56 23 -62 24 -66 8 -5 -20 -34 -22 -482 -41 -148
-6 -272 -13 -273 -14 -2 -2 11 -51 29 -109 31 -101 33 -106 60 -106 15 0 130
5 256 10 125 6 269 11 318 13 l90 2 3 -378 2 -377 139 0 138 0 8 -82 c7 -88
35 -255 54 -325 l11 -41 38 10 c20 5 68 18 106 29 65 20 68 22 63 47 -3 15
-14 72 -25 127 -11 55 -23 130 -26 168 l-7 67 38 0 c35 0 47 8 133 95 52 52
99 95 105 95 6 0 55 -44 109 -99 90 -91 98 -102 102 -142 2 -24 8 -117 15
-207 6 -89 16 -165 21 -168 11 -7 199 16 210 25 4 3 1 60 -7 126 -8 66 -15
155 -15 198 l0 77 175 0 175 0 0 430 c0 310 3 430 11 430 19 0 108 -70 144
-114 61 -74 85 -140 85 -232 0 -89 -17 -160 -61 -246 -16 -32 -29 -59 -29 -61
0 -3 41 -28 92 -57 l91 -53 18 21 c23 29 75 156 96 234 25 93 23 235 -5 323
-42 138 -139 261 -280 355 l-73 49 -62 -40 -62 -40 -5 -57 c-5 -56 -6 -57 -37
-60 -33 -3 -33 -3 -33 42 l0 45 -102 -6 c-78 -4 -118 -2 -167 11 -190 49 -333
187 -387 375 l-21 74 -7 -46z m744 -606 c0 -67 -7 -81 -41 -81 l-29 0 0 65 0
65 35 0 35 0 0 -49z m-630 -46 l0 -35 -125 0 c-123 0 -125 0 -124 -22 2 -31
16 -87 18 -68 1 12 22 16 107 18 67 2 111 -1 119 -8 10 -8 15 -8 21 1 5 9 10
7 15 -7 5 -14 8 -7 8 22 1 23 4 62 7 87 6 45 7 45 35 35 16 -5 54 -8 84 -6
l55 3 -162 -162 -162 -163 -129 128 c-70 70 -141 143 -156 162 l-29 35 59 -3
c38 -3 59 0 59 7 0 7 49 11 150 11 l150 0 0 -35z m330 -95 c0 -24 -5 -31 -26
-36 -29 -7 -44 7 -44 44 0 19 5 22 35 22 32 0 35 -2 35 -30z m277 -43 c-3 -24
-11 -55 -16 -70 -9 -24 -13 -25 -41 -15 -19 6 -29 15 -26 23 3 8 8 31 12 52 9
51 11 53 46 53 30 0 31 0 25 -43z m-238 -98 l23 -51 -21 -21 -22 -22 -19 25
c-10 14 -26 42 -34 63 -14 37 -14 38 7 47 36 14 41 11 66 -41z m170 -45 l23
-16 -33 -34 c-33 -34 -84 -53 -101 -36 -14 14 2 62 22 62 9 0 25 9 35 20 22
24 24 24 54 4z m-814 -74 l60 -60 -65 -65 -65 -65 -65 65 -64 65 59 60 c33 33
64 60 70 60 6 0 37 -27 70 -60z"></path>
<path d="M2122 1741 c-10 -6 -12 -23 -8 -57 2 -27 5 -75 5 -106 l1 -56 98 5
c53 3 98 6 99 7 1 1 -12 50 -30 109 l-32 107 -60 0 c-33 0 -66 -4 -73 -9z"></path>
</g>
</svg>